<svg height="1789.2095" viewBox="0 0 1788.6293 1789.2095" width="1788.6293" xmlns="http://www.w3.org/2000/svg"><path d="M 341.946,589.6667 A 171.09965,171.09965 0 0 1 161.79364,751.20702 171.09965,171.09965 0 0 1 0.25325739,571.0547 171.09965,171.09965 0 0 1 180.40562,409.51426 171.09965,171.09965 0 0 1 341.946,589.6667 Z m 139.80579,894.3017 a 171.09965,171.09965 0 0 1 -180.15236,161.5401 171.09965,171.09965 0 0 1 -161.54039,-180.1523 171.09965,171.09965 0 0 1 180.15237,-161.5405 171.09965,171.09965 0 0 1 161.54038,180.1527 z m 893.94281,143.4473 a 171.09965,171.09965 0 0 1 -180.1523,161.5405 171.09965,171.09965 0 0 1 -161.5404,-180.1524 171.09965,171.09965 0 0 1 180.1524,-161.5405 171.09965,171.09965 0 0 1 161.5403,180.1524 z M 1788.376,821.7699 A 171.09965,171.09965 0 0 1 1608.2237,983.31021 171.09965,171.09965 0 0 1 1446.6832,803.15789 171.09965,171.09965 0 0 1 1626.8355,641.61757 171.09965,171.09965 0 0 1 1788.376,821.7699 Z M 1149.4842,180.40564 A 171.09965,171.09965 0 0 1 969.33171,341.94603 171.09965,171.09965 0 0 1 807.79139,161.79365 171.09965,171.09965 0 0 1 987.94372,0.25325792 171.09965,171.09965 0 0 1 1149.4842,180.40564 Z m -792.52342,371.6819 a 188.20963,188.20963 0 0 1 2.07029,38.5086 188.20963,188.20963 0 0 1 -19.56107,73.71432 l 276.93395,44.47923 54.4306,-106.2947 z m 474.63645,76.2221 -54.43595,106.30538 654.33592,105.0888 a 188.20963,188.20963 0 0 1 -1.8996,-37.47876 188.20963,188.20963 0 0 1 20.0788,-74.64799 z M 1063.9717,338.59108 a 188.20963,188.20963 0 0 1 -95.5696,20.44149 188.20963,188.20963 0 0 1 -16.47175,-1.72883 l 43.21482,276.72059 117.91603,18.92069 z m -43.7109,456.30786 102.1755,654.25056 a 188.20963,188.20963 0 0 1 92.651,-18.9688 188.20963,188.20963 0 0 1 19.6891,2.1609 L 1138.1822,813.81438 Z M 793.13136,201.46073 305.27277,448.69564 A 188.20963,188.20963 0 0 1 356.61395,550.0119 L 844.46724,302.76644 A 188.20963,188.20963 0 0 1 793.13136,201.46073 Z m 352.24364,56.54894 a 188.20963,188.20963 0 0 1 -80.5121,80.13321 l 385.9286,387.41724 a 188.20963,188.20963 0 0 1 80.5069,-80.13321 z m 339.8804,688.09027 -249.2037,486.50846 a 188.20963,188.20963 0 0 1 101.0656,51.8588 L 1586.3157,997.96397 A 188.20963,188.20963 0 0 1 1485.2554,946.09994 Z M 496.86577,1446.9886 a 188.20963,188.20963 0 0 1 1.9689,37.9111 188.20963,188.20963 0 0 1 -19.85455,74.2528 l 539.90948,86.6376 a 188.20963,188.20963 0 0 1 -1.9742,-37.9162 188.20963,188.20963 0 0 1 19.8598,-74.2477 z M 254.8867,748.63224 a 188.20963,188.20963 0 0 1 -94.02233,19.65712 188.20963,188.20963 0 0 1 -18.16843,-1.89976 l 84.42322,540.0002 a 188.20963,188.20963 0 0 1 94.02233,-19.6571 188.20963,188.20963 0 0 1 18.15773,1.9001 z M 846.37208,304.74603 560.93818,861.98083 645.212,946.58009 947.42698,356.59946 A 188.20963,188.20963 0 0 1 846.37208,304.74603 Z M 486.70102,1006.9122 342.12189,1289.1606 a 188.20963,188.20963 0 0 1 101.04426,51.8481 l 127.80337,-249.5025 z m 945.31908,-164.1029 -250.1803,126.78949 18.446,117.99081 283.07,-143.46387 A 188.20963,188.20963 0 0 1 1432.0201,842.8093 Z m -395.4157,200.3917 -591.53337,299.7871 a 188.20963,188.20963 0 0 1 51.34651,101.3273 L 1055.0503,1161.1973 Z M 337.83722,667.27177 a 188.20963,188.20963 0 0 1 -80.49604,80.12252 l 441.91192,443.63541 106.54017,-53.9931 z m 582.89469,585.14653 -106.54012,53.993 223.91731,224.7922 a 188.20963,188.20963 0 0 1 80.5121,-80.1332 z" fill-opacity="0.996"/></svg>
