<svg height="2400" viewBox="0 0 2400 2400" width="2400" xmlns="http://www.w3.org/2000/svg"><path d="m343.16176 591.34767a171.09965 171.09965 0 0 1 -180.15236 161.54032 171.09965 171.09965 0 0 1 -161.5403844-180.15232 171.09965 171.09965 0 0 1 180.1523644-161.54044 171.09965 171.09965 0 0 1 161.54038 180.15244zm139.80579 894.30173a171.09965 171.09965 0 0 1 -180.15236 161.5401 171.09965 171.09965 0 0 1 -161.54039-180.1523 171.09965 171.09965 0 0 1 180.15237-161.5405 171.09965 171.09965 0 0 1 161.54038 180.1527zm893.94285 143.4473a171.09965 171.09965 0 0 1 -180.1523 161.5405 171.09965 171.09965 0 0 1 -161.5404-180.1524 171.09965 171.09965 0 0 1 180.1524-161.5405 171.09965 171.09965 0 0 1 161.5403 180.1524zm412.6814-805.64583a171.09965 171.09965 0 0 1 -180.1523 161.54031 171.09965 171.09965 0 0 1 -161.5405-180.15232 171.09965 171.09965 0 0 1 180.1523-161.54032 171.09965 171.09965 0 0 1 161.5405 180.15233zm-638.8918-641.36426a171.09965 171.09965 0 0 1 -180.15253 161.54039 171.09965 171.09965 0 0 1 -161.54032-180.15238 171.09965 171.09965 0 0 1 180.15233-161.5403888 171.09965 171.09965 0 0 1 161.54052 180.1523788zm-792.52346 371.6819a188.20963 188.20963 0 0 1 2.07029 38.5086 188.20963 188.20963 0 0 1 -19.56107 73.71432l276.93395 44.47923 54.4306-106.2947zm474.63645 76.2221-54.43595 106.30538 654.33596 105.0888a188.20963 188.20963 0 0 1 -1.8996-37.47876 188.20963 188.20963 0 0 1 20.0788-74.64799zm232.37451-289.71856a188.20963 188.20963 0 0 1 -95.56964 20.44149 188.20963 188.20963 0 0 1 -16.47175-1.72883l43.21482 276.72059 117.91607 18.92069zm-43.7109 456.30786 102.1755 654.25059a188.20963 188.20963 0 0 1 92.651-18.9688 188.20963 188.20963 0 0 1 19.6891 2.1609l-96.5942-618.52725zm-227.12948-593.43821-487.85859 247.23491a188.20963 188.20963 0 0 1 51.34118 101.31626l487.85329-247.24546a188.20963 188.20963 0 0 1 -51.33588-101.30571zm352.24368 56.54894a188.20963 188.20963 0 0 1 -80.5121 80.13321l385.9286 387.41724a188.20963 188.20963 0 0 1 80.5069-80.13321zm339.8804 688.09027-249.2037 486.50849a188.20963 188.20963 0 0 1 101.0656 51.8588l249.1984-486.50326a188.20963 188.20963 0 0 1 -101.0603-51.86403zm-988.38967 500.88869a188.20963 188.20963 0 0 1 1.9689 37.9111 188.20963 188.20963 0 0 1 -19.85455 74.2528l539.90952 86.6376a188.20963 188.20963 0 0 1 -1.9742-37.9162 188.20963 188.20963 0 0 1 19.8598-74.2477zm-241.97907-698.35639a188.20963 188.20963 0 0 1 -94.02233 19.65712 188.20963 188.20963 0 0 1 -18.16843-1.89976l84.42322 540.00023a188.20963 188.20963 0 0 1 94.02233-19.6571 188.20963 188.20963 0 0 1 18.15773 1.9001zm591.48538-443.88621-285.4339 557.2348 84.27382 84.59926 302.21498-589.98063a188.20963 188.20963 0 0 1 -101.0549-51.85343zm-359.67106 702.1662-144.57913 282.2484a188.20963 188.20963 0 0 1 101.04426 51.8481l127.80337-249.5025zm945.31912-164.10293-250.1803 126.78949 18.446 117.99084 283.07-143.4639a188.20963 188.20963 0 0 1 -51.3357-101.31643zm-395.4157 200.39173-591.53341 299.7871a188.20963 188.20963 0 0 1 51.34651 101.3273l558.6328-283.1181zm-698.76722-375.92926a188.20963 188.20963 0 0 1 -80.49604 80.12252l441.91192 443.63544 106.54017-53.9931zm582.89469 585.14656-106.54012 53.993 223.91735 224.7922a188.20963 188.20963 0 0 1 80.5121-80.1332z" fill-opacity=".996"/></svg>