<?xml version="1.0" encoding="UTF-8"?>
<svg width="64" height="64" version="1.1" viewBox="0 0 16.933 16.933" xmlns="http://www.w3.org/2000/svg"><g transform="matrix(1.4734 0 0 1.4734 -121.13 -190.59)"><path d="m87.959 129.5c-3.1736 0-5.7464 2.5728-5.7464 5.7464 0 2.5384 1.6468 4.6922 3.9302 5.4529 0.28663 0.0524 0.39274-0.1254 0.39274-0.27699 0-0.13642-6e-3 -0.49747-8e-3 -0.97703-1.5985 0.34727-1.9361-0.77032-1.9361-0.77032-0.26045-0.66421-0.63803-0.8406-0.63803-0.8406-0.52228-0.35691 0.04-0.35002 0.04-0.35002 0.57602 0.0413 0.87919 0.59255 0.87919 0.59255 0.51263 0.87781 1.3463 0.62426 1.6729 0.47818 0.0524-0.37207 0.20119-0.62563 0.36518-0.76894-1.2761-0.1447-2.6183-0.63804-2.6183-2.8401 0-0.62701 0.22462-1.1396 0.59256-1.542-0.0593-0.14607-0.25631-0.72898 0.0551-1.5214 0 0 0.48369-0.15434 1.5806 0.5898 0.45889-0.12815 0.95085-0.19155 1.4387-0.19292 0.48783 1e-3 0.97979 0.0648 1.4387 0.19292 1.0969-0.74414 1.5792-0.5898 1.5792-0.5898 0.31281 0.79237 0.11575 1.3753 0.0565 1.5214 0.36931 0.40239 0.59118 0.91502 0.59118 1.542 0 2.2076-1.3436 2.6927-2.6238 2.836 0.20671 0.17639 0.38999 0.52779 0.38999 1.0638 0 0.76756-7e-3 1.3877-7e-3 1.5765 0 0.15297 0.10335 0.33211 0.39549 0.27699 2.2806-0.76206 3.926-2.9146 3.926-5.4529 0-3.1736-2.5728-5.7464-5.7464-5.7464" fill="#191714" fill-rule="evenodd"/></g></svg>
